<svg width="24" height="24" viewBox="0 0 40 40" fill="none" xmlns="http://www.w3.org/2000/svg">
<path d="M5.83331 33.3333C5.16665 33.3333 4.58331 33.0833 4.08331 32.5833C3.58331 32.0833 3.33331 31.5 3.33331 30.8333V9.16663C3.33331 8.49996 3.58331 7.91663 4.08331 7.41663C4.58331 6.91663 5.16665 6.66663 5.83331 6.66663H34.1666C34.8333 6.66663 35.4166 6.91663 35.9166 7.41663C36.4166 7.91663 36.6666 8.49996 36.6666 9.16663V30.8333C36.6666 31.5 36.4166 32.0833 35.9166 32.5833C35.4166 33.0833 34.8333 33.3333 34.1666 33.3333H5.83331ZM20 20.75L5.83331 11.4583V30.8333H34.1666V11.4583L20 20.75ZM20 18.25L34 9.16663H6.04165L20 18.25ZM5.83331 11.4583V9.16663V30.8333V11.4583Z" fill="white"/>
</svg>
