<svg width="32" height="32" viewBox="0 0 32 32" fill="none" xmlns="http://www.w3.org/2000/svg">
<g clip-path="url(#clip0_8_598)">
<rect width="32" height="32" fill="white"/>
<path d="M15.9541 5.00001C18.6326 5.00001 20.9412 5.81844 22.8801 7.4553L20.3915 9.96837C19.652 9.42917 18.9624 9.04402 18.3228 8.81294C17.7031 8.56259 16.9835 8.43742 16.164 8.43742C14.6249 8.43742 13.3956 9.02477 12.4762 10.1995C11.5567 11.3549 11.097 13.1169 11.097 15.4856C11.097 18.0468 11.4468 19.8666 12.1464 20.945C12.846 22.0041 13.9353 22.5337 15.4145 22.5337C16.4539 22.5337 17.3933 22.3122 18.2328 21.8693V17.3343H15.5344L15.0547 13.9835H23V23.8913C21.9206 24.5653 20.7313 25.0853 19.4321 25.4512C18.1329 25.8171 16.8336 26 15.5344 26C12.3762 26 9.99765 25.1142 8.39859 23.3425C6.79953 21.5516 6 18.9326 6 15.4856C6 13.2902 6.42975 11.403 7.28924 9.82394C8.16872 8.24485 9.35802 7.0509 10.8571 6.2421C12.3762 5.41404 14.0753 5.00001 15.9541 5.00001Z" fill="black"/>
<path d="M15.9541 5.00001C18.6326 5.00001 20.9412 5.81844 22.8801 7.4553L20.3915 9.96837C19.652 9.42917 18.9624 9.04402 18.3228 8.81294C17.7031 8.56259 16.9835 8.43742 16.164 8.43742C14.6249 8.43742 13.3956 9.02477 12.4762 10.1995C11.5567 11.3549 11.097 13.1169 11.097 15.4856C11.097 18.0468 11.4468 19.8666 12.1464 20.945C12.846 22.0041 13.9353 22.5337 15.4145 22.5337C16.4539 22.5337 17.3933 22.3122 18.2328 21.8693V17.3343H15.5344L15.0547 13.9835H23V23.8913C21.9206 24.5653 20.7313 25.0853 19.4321 25.4512C18.1329 25.8171 16.8336 26 15.5344 26C12.3762 26 9.99765 25.1142 8.39859 23.3425C6.79953 21.5516 6 18.9326 6 15.4856C6 13.2902 6.42975 11.403 7.28924 9.82394C8.16872 8.24485 9.35802 7.0509 10.8571 6.2421C12.3762 5.41404 14.0753 5.00001 15.9541 5.00001Z" fill="black"/>
<circle cx="24.5" cy="21.5" r="4.5" fill="url(#paint0_linear_8_598)"/>
</g>
<defs>
<linearGradient id="paint0_linear_8_598" x1="24.5" y1="17" x2="24.5" y2="26" gradientUnits="userSpaceOnUse">
<stop stop-color="#0E8E32"/>
<stop offset="1" stop-color="#5FB934"/>
</linearGradient>
<clipPath id="clip0_8_598">
<rect width="32" height="32" rx="5" fill="white"/>
</clipPath>
</defs>
</svg>
