<svg width="24" height="24" viewBox="0 0 40 40" fill="none" xmlns="http://www.w3.org/2000/svg">
<path fill-rule="evenodd" clip-rule="evenodd" d="M20.0165 1C8.94791 1 0 9.74348 0 20.5604C0 29.2069 5.73324 36.526 13.6868 39.1164C14.6812 39.3112 15.0454 38.6955 15.0454 38.1777C15.0454 37.7242 15.0126 36.1699 15.0126 34.5503C9.4445 35.7164 8.28498 32.2186 8.28498 32.2186C7.39015 29.9517 6.06429 29.369 6.06429 29.369C4.24185 28.1708 6.19704 28.1708 6.19704 28.1708C8.21861 28.3003 9.27938 30.1786 9.27938 30.1786C11.0686 33.1577 13.9518 32.316 15.1118 31.7977C15.2773 30.5347 15.8079 29.6603 16.3713 29.1747C11.9303 28.7212 7.25781 27.0373 7.25781 19.5239C7.25781 17.3865 8.05267 15.6378 9.31216 14.2778C9.11344 13.7921 8.41732 11.7839 9.51128 9.09607C9.51128 9.09607 11.2014 8.57782 15.0122 11.1039C16.6438 10.6757 18.3263 10.4579 20.0165 10.4561C21.7067 10.4561 23.4295 10.683 25.0205 11.1039C28.8317 8.57782 30.5218 9.09607 30.5218 9.09607C31.6158 11.7839 30.9192 13.7921 30.7205 14.2778C32.0132 15.6378 32.7753 17.3865 32.7753 19.5239C32.7753 27.0373 28.1028 28.6886 23.6287 29.1747C24.358 29.7899 24.9873 30.9556 24.9873 32.8016C24.9873 35.4247 24.9545 37.5299 24.9545 38.1773C24.9545 38.6955 25.3192 39.3112 26.3132 39.1168C34.2667 36.5256 39.9999 29.2069 39.9999 20.5604C40.0327 9.74348 31.052 1 20.0165 1Z" fill="white"/>
</svg>
