<svg width="24" height="24" viewBox="0 0 40 40" fill="none" xmlns="http://www.w3.org/2000/svg">
<path d="M7.20001 3.19995C5.0004 3.19995 3.20001 5.00034 3.20001 7.19995V32.7999C3.20001 34.9996 5.0004 36.7999 7.20001 36.7999H32.8C34.9996 36.7999 36.8 34.9996 36.8 32.7999V7.19995C36.8 5.00034 34.9996 3.19995 32.8 3.19995H7.20001ZM7.20001 4.79995H32.8C34.1348 4.79995 35.2 5.86516 35.2 7.19995V32.7999C35.2 34.1347 34.1348 35.1999 32.8 35.1999H7.20001C5.86523 35.1999 4.80001 34.1347 4.80001 32.7999V7.19995C4.80001 5.86516 5.86523 4.79995 7.20001 4.79995ZM11.2 8.80933C10.3238 8.80933 9.53539 9.07121 8.95157 9.56245C8.36776 10.0537 8.00939 10.7876 8.00939 11.5734C8.00939 13.0671 9.30504 14.2316 10.9531 14.3468L10.9563 14.3484C11.0348 14.3752 11.1171 14.3894 11.2 14.3906C13.0184 14.3906 14.3906 13.1168 14.3906 11.5734C14.3905 11.5593 14.39 11.5452 14.3891 11.5312C14.3077 10.011 12.9524 8.80933 11.2 8.80933ZM11.2 10.3906C12.3138 10.3906 12.7536 10.888 12.8016 11.5937C12.7919 12.2787 12.3681 12.8093 11.2 12.8093C10.0917 12.8093 9.59064 12.2417 9.59064 11.5734C9.59064 11.2392 9.71257 10.9874 9.96876 10.7718C10.2249 10.5563 10.6362 10.3906 11.2 10.3906ZM8.80001 15.2C8.58785 15.2 8.38437 15.2843 8.23435 15.4343C8.08433 15.5843 8.00003 15.7878 8.00001 16V31.1999C8.00003 31.4121 8.08433 31.6156 8.23435 31.7656C8.38437 31.9156 8.58785 31.9999 8.80001 32H13.6C13.8122 31.9999 14.0156 31.9156 14.1657 31.7656C14.3157 31.6156 14.4 31.4121 14.4 31.1999V26.5078V16C14.4 15.7878 14.3157 15.5843 14.1657 15.4343C14.0156 15.2843 13.8122 15.2 13.6 15.2H8.80001ZM16 15.2C15.7878 15.2 15.5844 15.2843 15.4344 15.4343C15.2843 15.5843 15.2 15.7878 15.2 16V31.1999C15.2 31.4121 15.2843 31.6156 15.4344 31.7656C15.5844 31.9156 15.7878 31.9999 16 32H20.8C21.0122 31.9999 21.2156 31.9156 21.3657 31.7656C21.5157 31.6156 21.6 31.4121 21.6 31.1999V23.1999C21.6 22.5362 21.7811 21.876 22.1 21.4437C22.4189 21.0114 22.8212 20.752 23.5859 20.7656C24.3745 20.7791 24.792 21.0493 25.1078 21.4734C25.4236 21.8975 25.6 22.5333 25.6 23.1999V31.1999C25.6 31.4121 25.6843 31.6156 25.8343 31.7656C25.9844 31.9156 26.1878 31.9999 26.4 32H31.2C31.4122 31.9999 31.6156 31.9156 31.7657 31.7656C31.9157 31.6156 32 31.4121 32 31.1999V22.6093C32 20.2401 31.2982 18.3634 30.0953 17.0937C28.8924 15.824 27.2193 15.2 25.45 15.2C23.7684 15.2 22.4887 15.7639 21.6 16.339V16C21.6 15.7878 21.5157 15.5843 21.3657 15.4343C21.2156 15.2843 21.0122 15.2 20.8 15.2H16ZM9.60001 16.8H12.8V26.5078V30.4H9.60001V16.8ZM16.8 16.8H20V18.0484C20.0001 18.2161 20.0528 18.3796 20.1509 18.5157C20.2489 18.6519 20.3873 18.7537 20.5463 18.8069C20.7054 18.8601 20.8772 18.862 21.0374 18.8122C21.1976 18.7625 21.3381 18.6636 21.4391 18.5296C21.4391 18.5296 22.6954 16.8 25.45 16.8C26.8527 16.8 28.0555 17.266 28.9344 18.1937C29.8133 19.1214 30.4 20.5506 30.4 22.6093V30.4H27.2V23.1999C27.2 22.2666 26.9764 21.3016 26.3922 20.5171C25.808 19.7326 24.8255 19.1864 23.6141 19.1656C22.3964 19.144 21.398 19.7015 20.8125 20.4953C20.227 21.289 20 22.2637 20 23.1999V30.4H16.8V16.8Z" fill="white"/>
</svg>
