<svg width="183" height="43" viewBox="0 0 183 43" fill="none" xmlns="http://www.w3.org/2000/svg">
<path d="M16.52 4.92002C20.808 4.92002 24.504 6.28002 27.608 9.00002L23.624 13.176C22.44 12.28 21.336 11.64 20.312 11.256C19.32 10.84 18.168 10.632 16.856 10.632C14.392 10.632 12.424 11.608 10.952 13.56C9.47999 15.48 8.74399 18.408 8.74399 22.344C8.74399 26.6 9.30398 29.624 10.424 31.416C11.544 33.176 13.288 34.056 15.656 34.056C17.32 34.056 18.824 33.688 20.168 32.952V25.416H15.848L15.08 19.848H27.8V36.312C26.072 37.432 24.168 38.296 22.088 38.904C20.008 39.512 17.928 39.816 15.848 39.816C10.792 39.816 6.98398 38.344 4.42398 35.4C1.86398 32.424 0.583984 28.072 0.583984 22.344C0.583984 18.696 1.27198 15.56 2.64798 12.936C4.05598 10.312 5.95998 8.32802 8.35998 6.98402C10.792 5.60802 13.512 4.92002 16.52 4.92002Z" fill="black"/>
<path d="M53.1695 31.608C53.1695 32.568 53.2975 33.272 53.5535 33.72C53.8415 34.168 54.2895 34.504 54.8975 34.728L53.3135 39.672C51.7455 39.544 50.4655 39.208 49.4735 38.664C48.4815 38.088 47.7135 37.192 47.1695 35.976C45.5055 38.536 42.9455 39.816 39.4895 39.816C36.9615 39.816 34.9455 39.08 33.4415 37.608C31.9375 36.136 31.1855 34.216 31.1855 31.848C31.1855 29.064 32.2095 26.936 34.2575 25.464C36.3055 23.992 39.2655 23.256 43.1375 23.256H45.7295V22.152C45.7295 20.648 45.4095 19.624 44.7695 19.08C44.1295 18.504 43.0095 18.216 41.4095 18.216C40.5775 18.216 39.5695 18.344 38.3855 18.6C37.2015 18.824 35.9855 19.144 34.7375 19.56L33.0095 14.568C34.6095 13.96 36.2415 13.496 37.9055 13.176C39.6015 12.856 41.1695 12.696 42.6095 12.696C46.2575 12.696 48.9295 13.448 50.6255 14.952C52.3215 16.456 53.1695 18.712 53.1695 21.72V31.608ZM41.6975 34.392C43.4255 34.392 44.7695 33.576 45.7295 31.944V27.432H43.8575C42.1295 27.432 40.8335 27.736 39.9695 28.344C39.1375 28.952 38.7215 29.896 38.7215 31.176C38.7215 32.2 38.9775 33 39.4895 33.576C40.0335 34.12 40.7695 34.392 41.6975 34.392Z" fill="black"/>
<path d="M73.6584 12.696C76.6984 12.696 79.0344 13.896 80.6664 16.296C82.2984 18.664 83.1144 21.992 83.1144 26.28C83.1144 28.904 82.6984 31.24 81.8664 33.288C81.0664 35.336 79.8984 36.936 78.3624 38.088C76.8584 39.24 75.0664 39.816 72.9864 39.816C71.6104 39.816 70.3464 39.528 69.1944 38.952C68.0744 38.376 67.1144 37.576 66.3144 36.552L65.9304 39H59.2104V3.38402L66.7944 2.56802V16.104C67.5624 15.048 68.5384 14.216 69.7224 13.608C70.9384 13 72.2504 12.696 73.6584 12.696ZM70.7784 34.296C73.7544 34.296 75.2424 31.624 75.2424 26.28C75.2424 23.24 74.8904 21.144 74.1864 19.992C73.4824 18.84 72.4584 18.264 71.1144 18.264C69.4184 18.264 67.9784 19.256 66.7944 21.24V31.848C67.2744 32.616 67.8504 33.224 68.5224 33.672C69.2264 34.088 69.9784 34.296 70.7784 34.296Z" fill="black"/>
<path d="M101.675 12.792C102.603 12.792 103.451 12.904 104.219 13.128L103.019 20.472C102.059 20.248 101.291 20.136 100.715 20.136C99.211 20.136 98.059 20.664 97.259 21.72C96.491 22.744 95.883 24.296 95.435 26.376V39H87.851V13.512H94.475L95.099 18.456C95.675 16.696 96.539 15.32 97.691 14.328C98.875 13.304 100.203 12.792 101.675 12.792Z" fill="black"/>
<path d="M114.701 13.512V39H107.117V13.512H114.701ZM110.861 0.0720215C112.173 0.0720215 113.245 0.488022 114.077 1.32002C114.941 2.12002 115.373 3.14402 115.373 4.39202C115.373 5.64002 114.941 6.68002 114.077 7.51202C113.245 8.31202 112.173 8.71202 110.861 8.71202C109.549 8.71202 108.477 8.31202 107.645 7.51202C106.813 6.68002 106.397 5.64002 106.397 4.39202C106.397 3.14402 106.813 2.12002 107.645 1.32002C108.477 0.488022 109.549 0.0720215 110.861 0.0720215Z" fill="black"/>
<path d="M142.887 25.752C142.887 26.808 142.839 27.72 142.743 28.488H126.951C127.207 30.632 127.815 32.136 128.775 33C129.735 33.864 131.063 34.296 132.759 34.296C133.783 34.296 134.775 34.12 135.735 33.768C136.695 33.384 137.735 32.808 138.855 32.04L141.975 36.264C138.999 38.632 135.687 39.816 132.039 39.816C127.911 39.816 124.743 38.6 122.535 36.168C120.327 33.736 119.223 30.472 119.223 26.376C119.223 23.784 119.687 21.464 120.615 19.416C121.543 17.336 122.903 15.704 124.695 14.52C126.487 13.304 128.631 12.696 131.127 12.696C134.807 12.696 137.687 13.848 139.767 16.152C141.847 18.456 142.887 21.656 142.887 25.752ZM135.447 23.592C135.383 19.688 134.007 17.736 131.319 17.736C130.007 17.736 128.983 18.216 128.247 19.176C127.543 20.136 127.111 21.72 126.951 23.928H135.447V23.592Z" fill="black"/>
<path d="M153.916 39.816C151.708 39.816 149.98 39.192 148.732 37.944C147.516 36.664 146.908 34.856 146.908 32.52V3.38402L154.492 2.56802V32.232C154.492 33.288 154.924 33.816 155.788 33.816C156.236 33.816 156.652 33.736 157.036 33.576L158.524 38.952C157.148 39.528 155.612 39.816 153.916 39.816Z" fill="black"/>
<path d="M175.572 31.128C176.756 31.128 177.764 31.56 178.596 32.424C179.46 33.256 179.892 34.264 179.892 35.448C179.892 36.664 179.46 37.704 178.596 38.568C177.764 39.4 176.756 39.816 175.572 39.816C174.356 39.816 173.316 39.4 172.452 38.568C171.62 37.704 171.204 36.664 171.204 35.448C171.204 34.264 171.62 33.256 172.452 32.424C173.316 31.56 174.356 31.128 175.572 31.128Z" fill="black"/>
<path d="M183 35C183 39.4183 179.418 43 175 43C170.582 43 167 39.4183 167 35C167 30.5817 170.582 27 175 27C179.418 27 183 30.5817 183 35Z" fill="url(#paint0_linear_8_590)"/>
<defs>
<linearGradient id="paint0_linear_8_590" x1="175" y1="27" x2="175" y2="43" gradientUnits="userSpaceOnUse">
<stop stop-color="#0E8E32"/>
<stop offset="1" stop-color="#5FB934"/>
</linearGradient>
</defs>
</svg>
