<svg width="24" height="24" viewBox="0 0 40 40" fill="none" xmlns="http://www.w3.org/2000/svg">
<path d="M32.3333 19.7084C32.1944 16.3473 30.9583 13.5 28.625 11.1667C26.2917 8.83337 23.4444 7.59726 20.0833 7.45837V4.95837C22.0833 5.01393 23.9653 5.43754 25.7292 6.22921C27.4931 7.02087 29.0417 8.08337 30.375 9.41671C31.7083 10.75 32.7708 12.2987 33.5625 14.0625C34.3542 15.8264 34.7778 17.7084 34.8333 19.7084H32.3333ZM25.2917 19.7084C25.1528 18.3195 24.5972 17.1459 23.625 16.1875C22.6528 15.2292 21.4722 14.6806 20.0833 14.5417V12.0417C22.1667 12.1806 23.9375 12.9723 25.3958 14.4167C26.8542 15.8612 27.6528 17.625 27.7917 19.7084H25.2917ZM33.125 35C29.7361 35 26.3681 34.1667 23.0208 32.5C19.6736 30.8334 16.6667 28.6667 14 26C11.3333 23.3334 9.16667 20.3264 7.5 16.9792C5.83333 13.632 5 10.2639 5 6.87504C5 6.33932 5.17857 5.89289 5.53571 5.53575C5.89285 5.17861 6.33928 5.00004 6.875 5.00004H12.7083C13.0864 5.00004 13.424 5.13199 13.7211 5.39587C14.0181 5.65976 14.2083 6.01393 14.2917 6.45837L15.4167 11.7084C15.4722 12.0973 15.4653 12.4514 15.3958 12.7709C15.3264 13.0903 15.1806 13.3612 14.9583 13.5834L10.7917 17.7917C12.3472 20.375 14.0903 22.625 16.0208 24.5417C17.9514 26.4584 20.1389 28.0834 22.5833 29.4167L26.5417 25.3334C26.8194 25.0278 27.1389 24.8125 27.5 24.6875C27.8611 24.5625 28.2222 24.5417 28.5833 24.625L33.5417 25.7084C33.967 25.8021 34.3164 26.0131 34.5898 26.3412C34.8633 26.6693 35 27.0556 35 27.5V33.125C35 33.6608 34.8214 34.1072 34.4643 34.4643C34.1072 34.8215 33.6607 35 33.125 35ZM9.54167 15.5L12.9167 12.0834L11.9583 7.50004H7.5C7.5 8.58337 7.66667 9.77087 8 11.0625C8.33333 12.3542 8.84722 13.8334 9.54167 15.5ZM24.9167 30.625C26.0556 31.1528 27.2917 31.5834 28.625 31.9167C29.9583 32.25 31.25 32.4445 32.5 32.5V28.0417L28.2083 27.1667L24.9167 30.625Z" fill="white"/>
</svg>
