<svg width="30" height="30" viewBox="0 0 30 30" fill="none" xmlns="http://www.w3.org/2000/svg">
<rect width="30" height="30" fill="url(#paint0_linear_6_4)"/>
<path d="M11.5625 16.25H13.4375V12.5H16.5625V16.25H18.4375V10.4688L15 8.1875L11.5625 10.4688V16.25ZM15 25.0312C17.7708 22.5104 19.8177 20.224 21.1406 18.1719C22.4635 16.1198 23.125 14.3125 23.125 12.75C23.125 10.2917 22.3385 8.28125 20.7656 6.71875C19.1927 5.15625 17.2708 4.375 15 4.375C12.7292 4.375 10.8073 5.15625 9.23438 6.71875C7.66146 8.28125 6.875 10.2917 6.875 12.75C6.875 14.3125 7.55208 16.1198 8.90625 18.1719C10.2604 20.224 12.2917 22.5104 15 25.0312ZM15 27.5C11.6458 24.6458 9.14062 21.9948 7.48438 19.5469C5.82812 17.099 5 14.8333 5 12.75C5 9.625 6.00521 7.13542 8.01562 5.28125C10.026 3.42708 12.3542 2.5 15 2.5C17.6458 2.5 19.974 3.42708 21.9844 5.28125C23.9948 7.13542 25 9.625 25 12.75C25 14.8333 24.1719 17.099 22.5156 19.5469C20.8594 21.9948 18.3542 24.6458 15 27.5Z" fill="url(#paint1_linear_6_4)"/>
<defs>
<linearGradient id="paint0_linear_6_4" x1="15" y1="0" x2="15" y2="30" gradientUnits="userSpaceOnUse">
<stop stop-color="white"/>
<stop offset="1" stop-color="white" stop-opacity="0"/>
</linearGradient>
<linearGradient id="paint1_linear_6_4" x1="15" y1="2.5" x2="15" y2="27.5" gradientUnits="userSpaceOnUse">
<stop stop-color="#0E8E32"/>
<stop offset="1" stop-color="#5FB934"/>
</linearGradient>
</defs>
</svg>
